<mxfile host="app.diagrams.net" agent="Mozilla/5.0 (Windows NT 10.0; Win64; x64) AppleWebKit/537.36 (KHTML, like Gecko) Chrome/135.0.0.0 Safari/537.36" version="26.1.1">
  <diagram name="第 1 页" id="eEJtGMIXdbM9ThFpS3Nj">
    <mxGraphModel dx="792" dy="1097" grid="1" gridSize="10" guides="1" tooltips="1" connect="1" arrows="1" fold="1" page="1" pageScale="1" pageWidth="827" pageHeight="1169" math="0" shadow="0">
      <root>
        <mxCell id="0" />
        <mxCell id="1" parent="0" />
        <mxCell id="I--uk0IJnU3XhjnONqk5-1" value="kbar" style="swimlane;fontStyle=1;align=center;verticalAlign=top;childLayout=stackLayout;horizontal=1;startSize=26;horizontalStack=0;resizeParent=1;resizeParentMax=0;resizeLast=0;collapsible=1;marginBottom=0;whiteSpace=wrap;html=1;" vertex="1" parent="1">
          <mxGeometry x="110" y="250" width="300" height="288" as="geometry" />
        </mxCell>
        <mxCell id="I--uk0IJnU3XhjnONqk5-2" value="+ field: type&lt;br&gt;+ time: UNIX&lt;div&gt;+ data[]: float&lt;/div&gt;&lt;div&gt;&lt;br&gt;&lt;/div&gt;" style="text;strokeColor=none;fillColor=none;align=left;verticalAlign=top;spacingLeft=4;spacingRight=4;overflow=hidden;rotatable=0;points=[[0,0.5],[1,0.5]];portConstraint=eastwest;whiteSpace=wrap;html=1;" vertex="1" parent="I--uk0IJnU3XhjnONqk5-1">
          <mxGeometry y="26" width="300" height="154" as="geometry" />
        </mxCell>
        <mxCell id="I--uk0IJnU3XhjnONqk5-3" value="" style="line;strokeWidth=1;fillColor=none;align=left;verticalAlign=middle;spacingTop=-1;spacingLeft=3;spacingRight=3;rotatable=0;labelPosition=right;points=[];portConstraint=eastwest;strokeColor=inherit;" vertex="1" parent="I--uk0IJnU3XhjnONqk5-1">
          <mxGeometry y="180" width="300" height="8" as="geometry" />
        </mxCell>
        <mxCell id="I--uk0IJnU3XhjnONqk5-4" value="+ method(type): type&lt;br&gt;+&amp;nbsp;" style="text;strokeColor=none;fillColor=none;align=left;verticalAlign=top;spacingLeft=4;spacingRight=4;overflow=hidden;rotatable=0;points=[[0,0.5],[1,0.5]];portConstraint=eastwest;whiteSpace=wrap;html=1;" vertex="1" parent="I--uk0IJnU3XhjnONqk5-1">
          <mxGeometry y="188" width="300" height="100" as="geometry" />
        </mxCell>
        <mxCell id="I--uk0IJnU3XhjnONqk5-5" value="security" style="swimlane;fontStyle=1;align=center;verticalAlign=top;childLayout=stackLayout;horizontal=1;startSize=26;horizontalStack=0;resizeParent=1;resizeParentMax=0;resizeLast=0;collapsible=1;marginBottom=0;whiteSpace=wrap;html=1;" vertex="1" parent="1">
          <mxGeometry x="510" y="250" width="290" height="280" as="geometry" />
        </mxCell>
        <mxCell id="I--uk0IJnU3XhjnONqk5-6" value="+ field: type&lt;div&gt;+ start: time&lt;/div&gt;&lt;div&gt;+ end: time&lt;/div&gt;&lt;div&gt;+ kbar[time] data&amp;nbsp;&lt;/div&gt;" style="text;strokeColor=none;fillColor=none;align=left;verticalAlign=top;spacingLeft=4;spacingRight=4;overflow=hidden;rotatable=0;points=[[0,0.5],[1,0.5]];portConstraint=eastwest;whiteSpace=wrap;html=1;" vertex="1" parent="I--uk0IJnU3XhjnONqk5-5">
          <mxGeometry y="26" width="290" height="154" as="geometry" />
        </mxCell>
        <mxCell id="I--uk0IJnU3XhjnONqk5-7" value="" style="line;strokeWidth=1;fillColor=none;align=left;verticalAlign=middle;spacingTop=-1;spacingLeft=3;spacingRight=3;rotatable=0;labelPosition=right;points=[];portConstraint=eastwest;strokeColor=inherit;" vertex="1" parent="I--uk0IJnU3XhjnONqk5-5">
          <mxGeometry y="180" width="290" height="8" as="geometry" />
        </mxCell>
        <mxCell id="I--uk0IJnU3XhjnONqk5-8" value="+ method(type): type" style="text;strokeColor=none;fillColor=none;align=left;verticalAlign=top;spacingLeft=4;spacingRight=4;overflow=hidden;rotatable=0;points=[[0,0.5],[1,0.5]];portConstraint=eastwest;whiteSpace=wrap;html=1;" vertex="1" parent="I--uk0IJnU3XhjnONqk5-5">
          <mxGeometry y="188" width="290" height="92" as="geometry" />
        </mxCell>
        <mxCell id="I--uk0IJnU3XhjnONqk5-9" value="transaction" style="swimlane;fontStyle=1;align=center;verticalAlign=top;childLayout=stackLayout;horizontal=1;startSize=26;horizontalStack=0;resizeParent=1;resizeParentMax=0;resizeLast=0;collapsible=1;marginBottom=0;whiteSpace=wrap;html=1;" vertex="1" parent="1">
          <mxGeometry x="114" y="590" width="300" height="288" as="geometry" />
        </mxCell>
        <mxCell id="I--uk0IJnU3XhjnONqk5-10" value="+ field: type&lt;br&gt;+ time UNIX&lt;div&gt;+ buy: float&lt;br&gt;+ position: float&lt;/div&gt;&lt;div&gt;+ price: float&lt;/div&gt;&lt;div&gt;+ cash&lt;/div&gt;&lt;div&gt;&lt;br&gt;&lt;/div&gt;&lt;div&gt;&lt;br&gt;&lt;/div&gt;" style="text;strokeColor=none;fillColor=none;align=left;verticalAlign=top;spacingLeft=4;spacingRight=4;overflow=hidden;rotatable=0;points=[[0,0.5],[1,0.5]];portConstraint=eastwest;whiteSpace=wrap;html=1;" vertex="1" parent="I--uk0IJnU3XhjnONqk5-9">
          <mxGeometry y="26" width="300" height="154" as="geometry" />
        </mxCell>
        <mxCell id="I--uk0IJnU3XhjnONqk5-11" value="" style="line;strokeWidth=1;fillColor=none;align=left;verticalAlign=middle;spacingTop=-1;spacingLeft=3;spacingRight=3;rotatable=0;labelPosition=right;points=[];portConstraint=eastwest;strokeColor=inherit;" vertex="1" parent="I--uk0IJnU3XhjnONqk5-9">
          <mxGeometry y="180" width="300" height="8" as="geometry" />
        </mxCell>
        <mxCell id="I--uk0IJnU3XhjnONqk5-12" value="+ method(type): type&lt;br&gt;+&amp;nbsp;" style="text;strokeColor=none;fillColor=none;align=left;verticalAlign=top;spacingLeft=4;spacingRight=4;overflow=hidden;rotatable=0;points=[[0,0.5],[1,0.5]];portConstraint=eastwest;whiteSpace=wrap;html=1;" vertex="1" parent="I--uk0IJnU3XhjnONqk5-9">
          <mxGeometry y="188" width="300" height="100" as="geometry" />
        </mxCell>
      </root>
    </mxGraphModel>
  </diagram>
</mxfile>
